<svg width="954" height="841" xmlns="http://www.w3.org/2000/svg" xmlns:xlink="http://www.w3.org/1999/xlink">
  <style>
    text {
      font-family: sans-serif;
      font-size: 10px;
    }
    .node {
      stroke-linecap: round;
    }
    .link {
      fill: none;
    }
  </style>

  
      <path class="link" d="&#xA;      M8 46&#xA;      L62 46&#xA;      A16 16 90 0 1 78 62&#xA;      L78 78&#xA;      A16 16 90 0 0 94 94&#xA;      L92 94" stroke="white" stroke-width="5"/>
      <path class="link" d="&#xA;      M8 46&#xA;      L62 46&#xA;      A16 16 90 0 1 78 62&#xA;      L78 78&#xA;      A16 16 90 0 0 94 94&#xA;      L92 94" stroke="#1b9e77" stroke-width="2"/>
    
      <path class="link" d="&#xA;      M92 92&#xA;      L146 92&#xA;      A16 16 90 0 1 162 108&#xA;      L162 150&#xA;      A16 16 90 0 0 178 166&#xA;      L176 166&#xA;      M92 118&#xA;      L146 118&#xA;      A16 16 90 0 1 162 134&#xA;      L162 150&#xA;      A16 16 90 0 0 178 166&#xA;      L176 166&#xA;      M92 92&#xA;      L146 92&#xA;      A16 16 90 0 1 162 108&#xA;      L162 172&#xA;      A16 16 90 0 0 178 188&#xA;      L176 188&#xA;      M92 118&#xA;      L146 118&#xA;      A16 16 90 0 1 162 134&#xA;      L162 172&#xA;      A16 16 90 0 0 178 188&#xA;      L176 188&#xA;      M92 92&#xA;      L146 92&#xA;      A16 16 90 0 1 162 108&#xA;      L162 216&#xA;      A16 16 90 0 0 178 232&#xA;      L176 232&#xA;      M92 118&#xA;      L146 118&#xA;      A16 16 90 0 1 162 134&#xA;      L162 216&#xA;      A16 16 90 0 0 178 232&#xA;      L176 232&#xA;      M92 92&#xA;      L146 92&#xA;      A16 16 90 0 1 162 108&#xA;      L162 238&#xA;      A16 16 90 0 0 178 254&#xA;      L176 254&#xA;      M92 118&#xA;      L146 118&#xA;      A16 16 90 0 1 162 134&#xA;      L162 238&#xA;      A16 16 90 0 0 178 254&#xA;      L176 254&#xA;      M92 92&#xA;      L146 92&#xA;      A16 16 90 0 1 162 108&#xA;      L162 260&#xA;      A16 16 90 0 0 178 276&#xA;      L176 276&#xA;      M92 118&#xA;      L146 118&#xA;      A16 16 90 0 1 162 134&#xA;      L162 260&#xA;      A16 16 90 0 0 178 276&#xA;      L176 276&#xA;      M92 92&#xA;      L146 92&#xA;      A16 16 90 0 1 162 108&#xA;      L162 282&#xA;      A16 16 90 0 0 178 298&#xA;      L176 298&#xA;      M92 118&#xA;      L146 118&#xA;      A16 16 90 0 1 162 134&#xA;      L162 282&#xA;      A16 16 90 0 0 178 298&#xA;      L176 298&#xA;      M92 92&#xA;      L146 92&#xA;      A16 16 90 0 1 162 108&#xA;      L162 304&#xA;      A16 16 90 0 0 178 320&#xA;      L176 320&#xA;      M92 118&#xA;      L146 118&#xA;      A16 16 90 0 1 162 134&#xA;      L162 304&#xA;      A16 16 90 0 0 178 320&#xA;      L176 320&#xA;      M92 92&#xA;      L146 92&#xA;      A16 16 90 0 1 162 108&#xA;      L162 326&#xA;      A16 16 90 0 0 178 342&#xA;      L176 342&#xA;      M92 118&#xA;      L146 118&#xA;      A16 16 90 0 1 162 134&#xA;      L162 326&#xA;      A16 16 90 0 0 178 342&#xA;      L176 342&#xA;      M92 92&#xA;      L146 92&#xA;      A16 16 90 0 1 162 108&#xA;      L162 348&#xA;      A16 16 90 0 0 178 364&#xA;      L176 364&#xA;      M92 118&#xA;      L146 118&#xA;      A16 16 90 0 1 162 134&#xA;      L162 348&#xA;      A16 16 90 0 0 178 364&#xA;      L176 364&#xA;      M92 92&#xA;      L146 92&#xA;      A16 16 90 0 1 162 108&#xA;      L162 370&#xA;      A16 16 90 0 0 178 386&#xA;      L176 386&#xA;      M92 118&#xA;      L146 118&#xA;      A16 16 90 0 1 162 134&#xA;      L162 370&#xA;      A16 16 90 0 0 178 386&#xA;      L176 386&#xA;      M92 92&#xA;      L146 92&#xA;      A16 16 90 0 1 162 108&#xA;      L162 392&#xA;      A16 16 90 0 0 178 408&#xA;      L176 408&#xA;      M92 118&#xA;      L146 118&#xA;      A16 16 90 0 1 162 134&#xA;      L162 392&#xA;      A16 16 90 0 0 178 408&#xA;      L176 408&#xA;      M92 92&#xA;      L146 92&#xA;      A16 16 90 0 1 162 108&#xA;      L162 414&#xA;      A16 16 90 0 0 178 430&#xA;      L176 430&#xA;      M92 118&#xA;      L146 118&#xA;      A16 16 90 0 1 162 134&#xA;      L162 414&#xA;      A16 16 90 0 0 178 430&#xA;      L176 430" stroke="white" stroke-width="5"/>
      <path class="link" d="&#xA;      M92 92&#xA;      L146 92&#xA;      A16 16 90 0 1 162 108&#xA;      L162 150&#xA;      A16 16 90 0 0 178 166&#xA;      L176 166&#xA;      M92 118&#xA;      L146 118&#xA;      A16 16 90 0 1 162 134&#xA;      L162 150&#xA;      A16 16 90 0 0 178 166&#xA;      L176 166&#xA;      M92 92&#xA;      L146 92&#xA;      A16 16 90 0 1 162 108&#xA;      L162 172&#xA;      A16 16 90 0 0 178 188&#xA;      L176 188&#xA;      M92 118&#xA;      L146 118&#xA;      A16 16 90 0 1 162 134&#xA;      L162 172&#xA;      A16 16 90 0 0 178 188&#xA;      L176 188&#xA;      M92 92&#xA;      L146 92&#xA;      A16 16 90 0 1 162 108&#xA;      L162 216&#xA;      A16 16 90 0 0 178 232&#xA;      L176 232&#xA;      M92 118&#xA;      L146 118&#xA;      A16 16 90 0 1 162 134&#xA;      L162 216&#xA;      A16 16 90 0 0 178 232&#xA;      L176 232&#xA;      M92 92&#xA;      L146 92&#xA;      A16 16 90 0 1 162 108&#xA;      L162 238&#xA;      A16 16 90 0 0 178 254&#xA;      L176 254&#xA;      M92 118&#xA;      L146 118&#xA;      A16 16 90 0 1 162 134&#xA;      L162 238&#xA;      A16 16 90 0 0 178 254&#xA;      L176 254&#xA;      M92 92&#xA;      L146 92&#xA;      A16 16 90 0 1 162 108&#xA;      L162 260&#xA;      A16 16 90 0 0 178 276&#xA;      L176 276&#xA;      M92 118&#xA;      L146 118&#xA;      A16 16 90 0 1 162 134&#xA;      L162 260&#xA;      A16 16 90 0 0 178 276&#xA;      L176 276&#xA;      M92 92&#xA;      L146 92&#xA;      A16 16 90 0 1 162 108&#xA;      L162 282&#xA;      A16 16 90 0 0 178 298&#xA;      L176 298&#xA;      M92 118&#xA;      L146 118&#xA;      A16 16 90 0 1 162 134&#xA;      L162 282&#xA;      A16 16 90 0 0 178 298&#xA;      L176 298&#xA;      M92 92&#xA;      L146 92&#xA;      A16 16 90 0 1 162 108&#xA;      L162 304&#xA;      A16 16 90 0 0 178 320&#xA;      L176 320&#xA;      M92 118&#xA;      L146 118&#xA;      A16 16 90 0 1 162 134&#xA;      L162 304&#xA;      A16 16 90 0 0 178 320&#xA;      L176 320&#xA;      M92 92&#xA;      L146 92&#xA;      A16 16 90 0 1 162 108&#xA;      L162 326&#xA;      A16 16 90 0 0 178 342&#xA;      L176 342&#xA;      M92 118&#xA;      L146 118&#xA;      A16 16 90 0 1 162 134&#xA;      L162 326&#xA;      A16 16 90 0 0 178 342&#xA;      L176 342&#xA;      M92 92&#xA;      L146 92&#xA;      A16 16 90 0 1 162 108&#xA;      L162 348&#xA;      A16 16 90 0 0 178 364&#xA;      L176 364&#xA;      M92 118&#xA;      L146 118&#xA;      A16 16 90 0 1 162 134&#xA;      L162 348&#xA;      A16 16 90 0 0 178 364&#xA;      L176 364&#xA;      M92 92&#xA;      L146 92&#xA;      A16 16 90 0 1 162 108&#xA;      L162 370&#xA;      A16 16 90 0 0 178 386&#xA;      L176 386&#xA;      M92 118&#xA;      L146 118&#xA;      A16 16 90 0 1 162 134&#xA;      L162 370&#xA;      A16 16 90 0 0 178 386&#xA;      L176 386&#xA;      M92 92&#xA;      L146 92&#xA;      A16 16 90 0 1 162 108&#xA;      L162 392&#xA;      A16 16 90 0 0 178 408&#xA;      L176 408&#xA;      M92 118&#xA;      L146 118&#xA;      A16 16 90 0 1 162 134&#xA;      L162 392&#xA;      A16 16 90 0 0 178 408&#xA;      L176 408&#xA;      M92 92&#xA;      L146 92&#xA;      A16 16 90 0 1 162 108&#xA;      L162 414&#xA;      A16 16 90 0 0 178 430&#xA;      L176 430&#xA;      M92 118&#xA;      L146 118&#xA;      A16 16 90 0 1 162 134&#xA;      L162 414&#xA;      A16 16 90 0 0 178 430&#xA;      L176 430" stroke="#d95f02" stroke-width="2"/>
    
      <path class="link" d="&#xA;      M176 166&#xA;      L272 166&#xA;      A16 16 90 0 1 288 182&#xA;      L288 220&#xA;      A16 16 90 0 0 304 236&#xA;      L302 236&#xA;      M176 188&#xA;      L272 188&#xA;      A16 16 90 0 1 288 204&#xA;      L288 220&#xA;      A16 16 90 0 0 304 236&#xA;      L302 236" stroke="white" stroke-width="5"/>
      <path class="link" d="&#xA;      M176 166&#xA;      L272 166&#xA;      A16 16 90 0 1 288 182&#xA;      L288 220&#xA;      A16 16 90 0 0 304 236&#xA;      L302 236&#xA;      M176 188&#xA;      L272 188&#xA;      A16 16 90 0 1 288 204&#xA;      L288 220&#xA;      A16 16 90 0 0 304 236&#xA;      L302 236" stroke="#7570b3" stroke-width="2"/>
    
      <path class="link" d="&#xA;      M176 210&#xA;      L258 210&#xA;      A16 16 90 0 1 274 226&#xA;      L274 242&#xA;      A16 16 90 0 0 290 258&#xA;      L302 258&#xA;      M92 96&#xA;      L188 96&#xA;      A86 86 90 0 1 274 182&#xA;      L274 242&#xA;      A16 16 90 0 0 290 258&#xA;      L302 258" stroke="white" stroke-width="5"/>
      <path class="link" d="&#xA;      M176 210&#xA;      L258 210&#xA;      A16 16 90 0 1 274 226&#xA;      L274 242&#xA;      A16 16 90 0 0 290 258&#xA;      L302 258&#xA;      M92 96&#xA;      L188 96&#xA;      A86 86 90 0 1 274 182&#xA;      L274 242&#xA;      A16 16 90 0 0 290 258&#xA;      L302 258" stroke="#e7298a" stroke-width="2"/>
    
      <path class="link" d="&#xA;      M176 232&#xA;      L244 232&#xA;      A16 16 90 0 1 260 248&#xA;      L260 286&#xA;      A16 16 90 0 0 276 302&#xA;      L302 302&#xA;      M176 254&#xA;      L244 254&#xA;      A16 16 90 0 1 260 270&#xA;      L260 286&#xA;      A16 16 90 0 0 276 302&#xA;      L302 302&#xA;      M176 232&#xA;      L244 232&#xA;      A16 16 90 0 1 260 248&#xA;      L260 308&#xA;      A16 16 90 0 0 276 324&#xA;      L302 324&#xA;      M176 254&#xA;      L244 254&#xA;      A16 16 90 0 1 260 270&#xA;      L260 308&#xA;      A16 16 90 0 0 276 324&#xA;      L302 324&#xA;      M176 232&#xA;      L244 232&#xA;      A16 16 90 0 1 260 248&#xA;      L260 330&#xA;      A16 16 90 0 0 276 346&#xA;      L302 346&#xA;      M176 254&#xA;      L244 254&#xA;      A16 16 90 0 1 260 270&#xA;      L260 330&#xA;      A16 16 90 0 0 276 346&#xA;      L302 346&#xA;      M176 232&#xA;      L244 232&#xA;      A16 16 90 0 1 260 248&#xA;      L260 388&#xA;      A16 16 90 0 0 276 404&#xA;      L302 404&#xA;      M176 254&#xA;      L244 254&#xA;      A16 16 90 0 1 260 270&#xA;      L260 388&#xA;      A16 16 90 0 0 276 404&#xA;      L302 404&#xA;      M176 232&#xA;      L244 232&#xA;      A16 16 90 0 1 260 248&#xA;      L260 516&#xA;      A16 16 90 0 0 276 532&#xA;      L302 532&#xA;      M176 254&#xA;      L244 254&#xA;      A16 16 90 0 1 260 270&#xA;      L260 516&#xA;      A16 16 90 0 0 276 532&#xA;      L302 532&#xA;      M176 232&#xA;      L244 232&#xA;      A16 16 90 0 1 260 248&#xA;      L260 542&#xA;      A16 16 90 0 0 276 558&#xA;      L302 558&#xA;      M176 254&#xA;      L244 254&#xA;      A16 16 90 0 1 260 270&#xA;      L260 542&#xA;      A16 16 90 0 0 276 558&#xA;      L302 558" stroke="white" stroke-width="5"/>
      <path class="link" d="&#xA;      M176 232&#xA;      L244 232&#xA;      A16 16 90 0 1 260 248&#xA;      L260 286&#xA;      A16 16 90 0 0 276 302&#xA;      L302 302&#xA;      M176 254&#xA;      L244 254&#xA;      A16 16 90 0 1 260 270&#xA;      L260 286&#xA;      A16 16 90 0 0 276 302&#xA;      L302 302&#xA;      M176 232&#xA;      L244 232&#xA;      A16 16 90 0 1 260 248&#xA;      L260 308&#xA;      A16 16 90 0 0 276 324&#xA;      L302 324&#xA;      M176 254&#xA;      L244 254&#xA;      A16 16 90 0 1 260 270&#xA;      L260 308&#xA;      A16 16 90 0 0 276 324&#xA;      L302 324&#xA;      M176 232&#xA;      L244 232&#xA;      A16 16 90 0 1 260 248&#xA;      L260 330&#xA;      A16 16 90 0 0 276 346&#xA;      L302 346&#xA;      M176 254&#xA;      L244 254&#xA;      A16 16 90 0 1 260 270&#xA;      L260 330&#xA;      A16 16 90 0 0 276 346&#xA;      L302 346&#xA;      M176 232&#xA;      L244 232&#xA;      A16 16 90 0 1 260 248&#xA;      L260 388&#xA;      A16 16 90 0 0 276 404&#xA;      L302 404&#xA;      M176 254&#xA;      L244 254&#xA;      A16 16 90 0 1 260 270&#xA;      L260 388&#xA;      A16 16 90 0 0 276 404&#xA;      L302 404&#xA;      M176 232&#xA;      L244 232&#xA;      A16 16 90 0 1 260 248&#xA;      L260 516&#xA;      A16 16 90 0 0 276 532&#xA;      L302 532&#xA;      M176 254&#xA;      L244 254&#xA;      A16 16 90 0 1 260 270&#xA;      L260 516&#xA;      A16 16 90 0 0 276 532&#xA;      L302 532&#xA;      M176 232&#xA;      L244 232&#xA;      A16 16 90 0 1 260 248&#xA;      L260 542&#xA;      A16 16 90 0 0 276 558&#xA;      L302 558&#xA;      M176 254&#xA;      L244 254&#xA;      A16 16 90 0 1 260 270&#xA;      L260 542&#xA;      A16 16 90 0 0 276 558&#xA;      L302 558" stroke="#66a61e" stroke-width="2"/>
    
      <path class="link" d="&#xA;      M176 276&#xA;      L230 276&#xA;      A16 16 90 0 1 246 292&#xA;      L246 446&#xA;      A16 16 90 0 0 262 462&#xA;      L302 462&#xA;      M176 298&#xA;      L230 298&#xA;      A16 16 90 0 1 246 314&#xA;      L246 446&#xA;      A16 16 90 0 0 262 462&#xA;      L302 462" stroke="white" stroke-width="5"/>
      <path class="link" d="&#xA;      M176 276&#xA;      L230 276&#xA;      A16 16 90 0 1 246 292&#xA;      L246 446&#xA;      A16 16 90 0 0 262 462&#xA;      L302 462&#xA;      M176 298&#xA;      L230 298&#xA;      A16 16 90 0 1 246 314&#xA;      L246 446&#xA;      A16 16 90 0 0 262 462&#xA;      L302 462" stroke="#e6ab02" stroke-width="2"/>
    
      <path class="link" d="&#xA;      M302 236&#xA;      L496 236&#xA;      A16 16 90 0 1 512 252&#xA;      L512 332&#xA;      A16 16 90 0 0 528 348&#xA;      L526 348&#xA;      M302 258&#xA;      L496 258&#xA;      A16 16 90 0 1 512 274&#xA;      L512 332&#xA;      A16 16 90 0 0 528 348&#xA;      L526 348" stroke="white" stroke-width="5"/>
      <path class="link" d="&#xA;      M302 236&#xA;      L496 236&#xA;      A16 16 90 0 1 512 252&#xA;      L512 332&#xA;      A16 16 90 0 0 528 348&#xA;      L526 348&#xA;      M302 258&#xA;      L496 258&#xA;      A16 16 90 0 1 512 274&#xA;      L512 332&#xA;      A16 16 90 0 0 528 348&#xA;      L526 348" stroke="#a6761d" stroke-width="2"/>
    
      <path class="link" d="&#xA;      M302 390&#xA;      L482 390&#xA;      A16 16 90 0 1 498 406&#xA;      L498 422&#xA;      A16 16 90 0 0 514 438&#xA;      L526 438&#xA;      M302 280&#xA;      L482 280&#xA;      A16 16 90 0 1 498 296&#xA;      L498 422&#xA;      A16 16 90 0 0 514 438&#xA;      L526 438" stroke="white" stroke-width="5"/>
      <path class="link" d="&#xA;      M302 390&#xA;      L482 390&#xA;      A16 16 90 0 1 498 406&#xA;      L498 422&#xA;      A16 16 90 0 0 514 438&#xA;      L526 438&#xA;      M302 280&#xA;      L482 280&#xA;      A16 16 90 0 1 498 296&#xA;      L498 422&#xA;      A16 16 90 0 0 514 438&#xA;      L526 438" stroke="#666666" stroke-width="2"/>
    
      <path class="link" d="&#xA;      M302 394&#xA;      L468 394&#xA;      A16 16 90 0 1 484 410&#xA;      L484 446&#xA;      A16 16 90 0 0 500 462&#xA;      L526 462&#xA;      M302 302&#xA;      L468 302&#xA;      A16 16 90 0 1 484 318&#xA;      L484 446&#xA;      A16 16 90 0 0 500 462&#xA;      L526 462" stroke="white" stroke-width="5"/>
      <path class="link" d="&#xA;      M302 394&#xA;      L468 394&#xA;      A16 16 90 0 1 484 410&#xA;      L484 446&#xA;      A16 16 90 0 0 500 462&#xA;      L526 462&#xA;      M302 302&#xA;      L468 302&#xA;      A16 16 90 0 1 484 318&#xA;      L484 446&#xA;      A16 16 90 0 0 500 462&#xA;      L526 462" stroke="#1b9e77" stroke-width="2"/>
    
      <path class="link" d="&#xA;      M302 398&#xA;      L454 398&#xA;      A16 16 90 0 1 470 414&#xA;      L470 468&#xA;      A16 16 90 0 0 486 484&#xA;      L526 484&#xA;      M302 346&#xA;      L454 346&#xA;      A16 16 90 0 1 470 362&#xA;      L470 468&#xA;      A16 16 90 0 0 486 484&#xA;      L526 484&#xA;      M302 398&#xA;      L454 398&#xA;      A16 16 90 0 1 470 414&#xA;      L470 490&#xA;      A16 16 90 0 0 486 506&#xA;      L526 506&#xA;      M302 346&#xA;      L454 346&#xA;      A16 16 90 0 1 470 362&#xA;      L470 490&#xA;      A16 16 90 0 0 486 506&#xA;      L526 506&#xA;      M302 398&#xA;      L454 398&#xA;      A16 16 90 0 1 470 414&#xA;      L470 512&#xA;      A16 16 90 0 0 486 528&#xA;      L526 528&#xA;      M302 346&#xA;      L454 346&#xA;      A16 16 90 0 1 470 362&#xA;      L470 512&#xA;      A16 16 90 0 0 486 528&#xA;      L526 528&#xA;      M302 398&#xA;      L454 398&#xA;      A16 16 90 0 1 470 414&#xA;      L470 600&#xA;      A16 16 90 0 0 486 616&#xA;      L526 616&#xA;      M302 346&#xA;      L454 346&#xA;      A16 16 90 0 1 470 362&#xA;      L470 600&#xA;      A16 16 90 0 0 486 616&#xA;      L526 616" stroke="white" stroke-width="5"/>
      <path class="link" d="&#xA;      M302 398&#xA;      L454 398&#xA;      A16 16 90 0 1 470 414&#xA;      L470 468&#xA;      A16 16 90 0 0 486 484&#xA;      L526 484&#xA;      M302 346&#xA;      L454 346&#xA;      A16 16 90 0 1 470 362&#xA;      L470 468&#xA;      A16 16 90 0 0 486 484&#xA;      L526 484&#xA;      M302 398&#xA;      L454 398&#xA;      A16 16 90 0 1 470 414&#xA;      L470 490&#xA;      A16 16 90 0 0 486 506&#xA;      L526 506&#xA;      M302 346&#xA;      L454 346&#xA;      A16 16 90 0 1 470 362&#xA;      L470 490&#xA;      A16 16 90 0 0 486 506&#xA;      L526 506&#xA;      M302 398&#xA;      L454 398&#xA;      A16 16 90 0 1 470 414&#xA;      L470 512&#xA;      A16 16 90 0 0 486 528&#xA;      L526 528&#xA;      M302 346&#xA;      L454 346&#xA;      A16 16 90 0 1 470 362&#xA;      L470 512&#xA;      A16 16 90 0 0 486 528&#xA;      L526 528&#xA;      M302 398&#xA;      L454 398&#xA;      A16 16 90 0 1 470 414&#xA;      L470 600&#xA;      A16 16 90 0 0 486 616&#xA;      L526 616&#xA;      M302 346&#xA;      L454 346&#xA;      A16 16 90 0 1 470 362&#xA;      L470 600&#xA;      A16 16 90 0 0 486 616&#xA;      L526 616" stroke="#d95f02" stroke-width="2"/>
    
      <path class="link" d="&#xA;      M302 402&#xA;      L440 402&#xA;      A16 16 90 0 1 456 418&#xA;      L456 534&#xA;      A16 16 90 0 0 472 550&#xA;      L526 550&#xA;      M302 368&#xA;      L440 368&#xA;      A16 16 90 0 1 456 384&#xA;      L456 534&#xA;      A16 16 90 0 0 472 550&#xA;      L526 550" stroke="white" stroke-width="5"/>
      <path class="link" d="&#xA;      M302 402&#xA;      L440 402&#xA;      A16 16 90 0 1 456 418&#xA;      L456 534&#xA;      A16 16 90 0 0 472 550&#xA;      L526 550&#xA;      M302 368&#xA;      L440 368&#xA;      A16 16 90 0 1 456 384&#xA;      L456 534&#xA;      A16 16 90 0 0 472 550&#xA;      L526 550" stroke="#7570b3" stroke-width="2"/>
    
      <path class="link" d="&#xA;      M302 406&#xA;      L426 406&#xA;      A16 16 90 0 1 442 422&#xA;      L442 622&#xA;      A16 16 90 0 0 458 638&#xA;      L526 638&#xA;      M302 440&#xA;      L426 440&#xA;      A16 16 90 0 1 442 456&#xA;      L442 622&#xA;      A16 16 90 0 0 458 638&#xA;      L526 638" stroke="white" stroke-width="5"/>
      <path class="link" d="&#xA;      M302 406&#xA;      L426 406&#xA;      A16 16 90 0 1 442 422&#xA;      L442 622&#xA;      A16 16 90 0 0 458 638&#xA;      L526 638&#xA;      M302 440&#xA;      L426 440&#xA;      A16 16 90 0 1 442 456&#xA;      L442 622&#xA;      A16 16 90 0 0 458 638&#xA;      L526 638" stroke="#e7298a" stroke-width="2"/>
    
      <path class="link" d="&#xA;      M302 410&#xA;      L412 410&#xA;      A16 16 90 0 1 428 426&#xA;      L428 666&#xA;      A16 16 90 0 0 444 682&#xA;      L526 682" stroke="white" stroke-width="5"/>
      <path class="link" d="&#xA;      M302 410&#xA;      L412 410&#xA;      A16 16 90 0 1 428 426&#xA;      L428 666&#xA;      A16 16 90 0 0 444 682&#xA;      L526 682" stroke="#66a61e" stroke-width="2"/>
    
      <path class="link" d="&#xA;      M302 414&#xA;      L398 414&#xA;      A16 16 90 0 1 414 430&#xA;      L414 688&#xA;      A16 16 90 0 0 430 704&#xA;      L526 704&#xA;      M302 462&#xA;      L398 462&#xA;      A16 16 90 0 1 414 478&#xA;      L414 688&#xA;      A16 16 90 0 0 430 704&#xA;      L526 704&#xA;      M302 414&#xA;      L398 414&#xA;      A16 16 90 0 1 414 430&#xA;      L414 710&#xA;      A16 16 90 0 0 430 726&#xA;      L526 726&#xA;      M302 462&#xA;      L398 462&#xA;      A16 16 90 0 1 414 478&#xA;      L414 710&#xA;      A16 16 90 0 0 430 726&#xA;      L526 726" stroke="white" stroke-width="5"/>
      <path class="link" d="&#xA;      M302 414&#xA;      L398 414&#xA;      A16 16 90 0 1 414 430&#xA;      L414 688&#xA;      A16 16 90 0 0 430 704&#xA;      L526 704&#xA;      M302 462&#xA;      L398 462&#xA;      A16 16 90 0 1 414 478&#xA;      L414 688&#xA;      A16 16 90 0 0 430 704&#xA;      L526 704&#xA;      M302 414&#xA;      L398 414&#xA;      A16 16 90 0 1 414 430&#xA;      L414 710&#xA;      A16 16 90 0 0 430 726&#xA;      L526 726&#xA;      M302 462&#xA;      L398 462&#xA;      A16 16 90 0 1 414 478&#xA;      L414 710&#xA;      A16 16 90 0 0 430 726&#xA;      L526 726" stroke="#e6ab02" stroke-width="2"/>
    
      <path class="link" d="&#xA;      M302 528&#xA;      L384 528&#xA;      A16 16 90 0 1 400 544&#xA;      L400 732&#xA;      A16 16 90 0 0 416 748&#xA;      L526 748&#xA;      M302 484&#xA;      L384 484&#xA;      A16 16 90 0 1 400 500&#xA;      L400 732&#xA;      A16 16 90 0 0 416 748&#xA;      L526 748" stroke="white" stroke-width="5"/>
      <path class="link" d="&#xA;      M302 528&#xA;      L384 528&#xA;      A16 16 90 0 1 400 544&#xA;      L400 732&#xA;      A16 16 90 0 0 416 748&#xA;      L526 748&#xA;      M302 484&#xA;      L384 484&#xA;      A16 16 90 0 1 400 500&#xA;      L400 732&#xA;      A16 16 90 0 0 416 748&#xA;      L526 748" stroke="#a6761d" stroke-width="2"/>
    
      <path class="link" d="&#xA;      M302 532&#xA;      L370 532&#xA;      A16 16 90 0 1 386 548&#xA;      L386 754&#xA;      A16 16 90 0 0 402 770&#xA;      L526 770&#xA;      M302 506&#xA;      L370 506&#xA;      A16 16 90 0 1 386 522&#xA;      L386 754&#xA;      A16 16 90 0 0 402 770&#xA;      L526 770" stroke="white" stroke-width="5"/>
      <path class="link" d="&#xA;      M302 532&#xA;      L370 532&#xA;      A16 16 90 0 1 386 548&#xA;      L386 754&#xA;      A16 16 90 0 0 402 770&#xA;      L526 770&#xA;      M302 506&#xA;      L370 506&#xA;      A16 16 90 0 1 386 522&#xA;      L386 754&#xA;      A16 16 90 0 0 402 770&#xA;      L526 770" stroke="#666666" stroke-width="2"/>
    
      <path class="link" d="&#xA;      M302 536&#xA;      L356 536&#xA;      A16 16 90 0 1 372 552&#xA;      L372 776&#xA;      A16 16 90 0 0 388 792&#xA;      L526 792&#xA;      M302 536&#xA;      L356 536&#xA;      A16 16 90 0 1 372 552&#xA;      L372 798&#xA;      A16 16 90 0 0 388 814&#xA;      L526 814" stroke="white" stroke-width="5"/>
      <path class="link" d="&#xA;      M302 536&#xA;      L356 536&#xA;      A16 16 90 0 1 372 552&#xA;      L372 776&#xA;      A16 16 90 0 0 388 792&#xA;      L526 792&#xA;      M302 536&#xA;      L356 536&#xA;      A16 16 90 0 1 372 552&#xA;      L372 798&#xA;      A16 16 90 0 0 388 814&#xA;      L526 814" stroke="#1b9e77" stroke-width="2"/>
    
      <path class="link" d="&#xA;      M526 370&#xA;      L622 370&#xA;      A16 16 90 0 1 638 386&#xA;      L638 578&#xA;      A16 16 90 0 0 654 594&#xA;      L652 594&#xA;      M526 348&#xA;      L622 348&#xA;      A16 16 90 0 1 638 364&#xA;      L638 578&#xA;      A16 16 90 0 0 654 594&#xA;      L652 594" stroke="white" stroke-width="5"/>
      <path class="link" d="&#xA;      M526 370&#xA;      L622 370&#xA;      A16 16 90 0 1 638 386&#xA;      L638 578&#xA;      A16 16 90 0 0 654 594&#xA;      L652 594&#xA;      M526 348&#xA;      L622 348&#xA;      A16 16 90 0 1 638 364&#xA;      L638 578&#xA;      A16 16 90 0 0 654 594&#xA;      L652 594" stroke="#d95f02" stroke-width="2"/>
    
      <path class="link" d="&#xA;      M526 392&#xA;      L608 392&#xA;      A16 16 90 0 1 624 408&#xA;      L624 624&#xA;      A16 16 90 0 0 640 640&#xA;      L652 640&#xA;      M526 436&#xA;      L608 436&#xA;      A16 16 90 0 1 624 452&#xA;      L624 624&#xA;      A16 16 90 0 0 640 640&#xA;      L652 640" stroke="white" stroke-width="5"/>
      <path class="link" d="&#xA;      M526 392&#xA;      L608 392&#xA;      A16 16 90 0 1 624 408&#xA;      L624 624&#xA;      A16 16 90 0 0 640 640&#xA;      L652 640&#xA;      M526 436&#xA;      L608 436&#xA;      A16 16 90 0 1 624 452&#xA;      L624 624&#xA;      A16 16 90 0 0 640 640&#xA;      L652 640" stroke="#7570b3" stroke-width="2"/>
    
      <path class="link" d="&#xA;      M526 506&#xA;      L594 506&#xA;      A16 16 90 0 1 610 522&#xA;      L610 670&#xA;      A16 16 90 0 0 626 686&#xA;      L652 686&#xA;      M526 440&#xA;      L594 440&#xA;      A16 16 90 0 1 610 456&#xA;      L610 670&#xA;      A16 16 90 0 0 626 686&#xA;      L652 686" stroke="white" stroke-width="5"/>
      <path class="link" d="&#xA;      M526 506&#xA;      L594 506&#xA;      A16 16 90 0 1 610 522&#xA;      L610 670&#xA;      A16 16 90 0 0 626 686&#xA;      L652 686&#xA;      M526 440&#xA;      L594 440&#xA;      A16 16 90 0 1 610 456&#xA;      L610 670&#xA;      A16 16 90 0 0 626 686&#xA;      L652 686" stroke="#e7298a" stroke-width="2"/>
    
      <path class="link" d="&#xA;      M526 660&#xA;      L580 660&#xA;      A16 16 90 0 1 596 676&#xA;      L596 692&#xA;      A16 16 90 0 0 612 708&#xA;      L652 708&#xA;      M302 418&#xA;      L510 418&#xA;      A86 86 90 0 1 596 504&#xA;      L596 692&#xA;      A16 16 90 0 0 612 708&#xA;      L652 708&#xA;      M526 660&#xA;      L580 660&#xA;      A16 16 90 0 1 596 676&#xA;      L596 736&#xA;      A16 16 90 0 0 612 752&#xA;      L652 752&#xA;      M302 418&#xA;      L510 418&#xA;      A86 86 90 0 1 596 504&#xA;      L596 736&#xA;      A16 16 90 0 0 612 752&#xA;      L652 752" stroke="white" stroke-width="5"/>
      <path class="link" d="&#xA;      M526 660&#xA;      L580 660&#xA;      A16 16 90 0 1 596 676&#xA;      L596 692&#xA;      A16 16 90 0 0 612 708&#xA;      L652 708&#xA;      M302 418&#xA;      L510 418&#xA;      A86 86 90 0 1 596 504&#xA;      L596 692&#xA;      A16 16 90 0 0 612 708&#xA;      L652 708&#xA;      M526 660&#xA;      L580 660&#xA;      A16 16 90 0 1 596 676&#xA;      L596 736&#xA;      A16 16 90 0 0 612 752&#xA;      L652 752&#xA;      M302 418&#xA;      L510 418&#xA;      A86 86 90 0 1 596 504&#xA;      L596 736&#xA;      A16 16 90 0 0 612 752&#xA;      L652 752" stroke="#66a61e" stroke-width="2"/>
    
      <path class="link" d="&#xA;      M652 572&#xA;      L748 572&#xA;      A16 16 90 0 1 764 588&#xA;      L764 674&#xA;      A16 16 90 0 0 780 690&#xA;      L778 690&#xA;      M652 594&#xA;      L748 594&#xA;      A16 16 90 0 1 764 610&#xA;      L764 674&#xA;      A16 16 90 0 0 780 690&#xA;      L778 690" stroke="white" stroke-width="5"/>
      <path class="link" d="&#xA;      M652 572&#xA;      L748 572&#xA;      A16 16 90 0 1 764 588&#xA;      L764 674&#xA;      A16 16 90 0 0 780 690&#xA;      L778 690&#xA;      M652 594&#xA;      L748 594&#xA;      A16 16 90 0 1 764 610&#xA;      L764 674&#xA;      A16 16 90 0 0 780 690&#xA;      L778 690" stroke="#e6ab02" stroke-width="2"/>
    
      <path class="link" d="&#xA;      M652 616&#xA;      L734 616&#xA;      A16 16 90 0 1 750 632&#xA;      L750 696&#xA;      A16 16 90 0 0 766 712&#xA;      L778 712&#xA;      M652 638&#xA;      L734 638&#xA;      A16 16 90 0 1 750 654&#xA;      L750 696&#xA;      A16 16 90 0 0 766 712&#xA;      L778 712&#xA;      M652 616&#xA;      L734 616&#xA;      A16 16 90 0 1 750 632&#xA;      L750 718&#xA;      A16 16 90 0 0 766 734&#xA;      L778 734&#xA;      M652 638&#xA;      L734 638&#xA;      A16 16 90 0 1 750 654&#xA;      L750 718&#xA;      A16 16 90 0 0 766 734&#xA;      L778 734" stroke="white" stroke-width="5"/>
      <path class="link" d="&#xA;      M652 616&#xA;      L734 616&#xA;      A16 16 90 0 1 750 632&#xA;      L750 696&#xA;      A16 16 90 0 0 766 712&#xA;      L778 712&#xA;      M652 638&#xA;      L734 638&#xA;      A16 16 90 0 1 750 654&#xA;      L750 696&#xA;      A16 16 90 0 0 766 712&#xA;      L778 712&#xA;      M652 616&#xA;      L734 616&#xA;      A16 16 90 0 1 750 632&#xA;      L750 718&#xA;      A16 16 90 0 0 766 734&#xA;      L778 734&#xA;      M652 638&#xA;      L734 638&#xA;      A16 16 90 0 1 750 654&#xA;      L750 718&#xA;      A16 16 90 0 0 766 734&#xA;      L778 734" stroke="#a6761d" stroke-width="2"/>
    
      <path class="link" d="&#xA;      M652 664&#xA;      L720 664&#xA;      A16 16 90 0 1 736 680&#xA;      L736 740&#xA;      A16 16 90 0 0 752 756&#xA;      L778 756&#xA;      M652 642&#xA;      L720 642&#xA;      A16 16 90 0 1 736 658&#xA;      L736 740&#xA;      A16 16 90 0 0 752 756&#xA;      L778 756" stroke="white" stroke-width="5"/>
      <path class="link" d="&#xA;      M652 664&#xA;      L720 664&#xA;      A16 16 90 0 1 736 680&#xA;      L736 740&#xA;      A16 16 90 0 0 752 756&#xA;      L778 756&#xA;      M652 642&#xA;      L720 642&#xA;      A16 16 90 0 1 736 658&#xA;      L736 740&#xA;      A16 16 90 0 0 752 756&#xA;      L778 756" stroke="#666666" stroke-width="2"/>
    
      <path class="link" d="&#xA;      M652 708&#xA;      L706 708&#xA;      A16 16 90 0 1 722 724&#xA;      L722 762&#xA;      A16 16 90 0 0 738 778&#xA;      L778 778&#xA;      M652 730&#xA;      L706 730&#xA;      A16 16 90 0 1 722 746&#xA;      L722 762&#xA;      A16 16 90 0 0 738 778&#xA;      L778 778" stroke="white" stroke-width="5"/>
      <path class="link" d="&#xA;      M652 708&#xA;      L706 708&#xA;      A16 16 90 0 1 722 724&#xA;      L722 762&#xA;      A16 16 90 0 0 738 778&#xA;      L778 778&#xA;      M652 730&#xA;      L706 730&#xA;      A16 16 90 0 1 722 746&#xA;      L722 762&#xA;      A16 16 90 0 0 738 778&#xA;      L778 778" stroke="#1b9e77" stroke-width="2"/>
    

  
    <line class="node" stroke="black" stroke-width="8" x1="8" y1="46" x2="8" y2="46"/>
    <line class="node" stroke="white" stroke-width="4" x1="8" y1="46" x2="8" y2="46"/>

    <text x="12" y="42" stroke="white" stroke-width="2">Chaos</text>
    <text x="12" y="42">Chaos</text>
  
    <line class="node" stroke="black" stroke-width="8" x1="92" y1="92" x2="92" y2="96"/>
    <line class="node" stroke="white" stroke-width="4" x1="92" y1="92" x2="92" y2="96"/>

    <text x="96" y="88" stroke="white" stroke-width="2">Gaea</text>
    <text x="96" y="88">Gaea</text>
  
    <line class="node" stroke="black" stroke-width="8" x1="92" y1="118" x2="92" y2="118"/>
    <line class="node" stroke="white" stroke-width="4" x1="92" y1="118" x2="92" y2="118"/>

    <text x="96" y="114" stroke="white" stroke-width="2">Uranus</text>
    <text x="96" y="114">Uranus</text>
  
    <line class="node" stroke="black" stroke-width="8" x1="176" y1="166" x2="176" y2="166"/>
    <line class="node" stroke="white" stroke-width="4" x1="176" y1="166" x2="176" y2="166"/>

    <text x="180" y="162" stroke="white" stroke-width="2">Oceanus</text>
    <text x="180" y="162">Oceanus</text>
  
    <line class="node" stroke="black" stroke-width="8" x1="176" y1="188" x2="176" y2="188"/>
    <line class="node" stroke="white" stroke-width="4" x1="176" y1="188" x2="176" y2="188"/>

    <text x="180" y="184" stroke="white" stroke-width="2">Thethys</text>
    <text x="180" y="184">Thethys</text>
  
    <line class="node" stroke="black" stroke-width="8" x1="176" y1="210" x2="176" y2="210"/>
    <line class="node" stroke="white" stroke-width="4" x1="176" y1="210" x2="176" y2="210"/>

    <text x="180" y="206" stroke="white" stroke-width="2">Pontus</text>
    <text x="180" y="206">Pontus</text>
  
    <line class="node" stroke="black" stroke-width="8" x1="176" y1="232" x2="176" y2="232"/>
    <line class="node" stroke="white" stroke-width="4" x1="176" y1="232" x2="176" y2="232"/>

    <text x="180" y="228" stroke="white" stroke-width="2">Rhea</text>
    <text x="180" y="228">Rhea</text>
  
    <line class="node" stroke="black" stroke-width="8" x1="176" y1="254" x2="176" y2="254"/>
    <line class="node" stroke="white" stroke-width="4" x1="176" y1="254" x2="176" y2="254"/>

    <text x="180" y="250" stroke="white" stroke-width="2">Cronus</text>
    <text x="180" y="250">Cronus</text>
  
    <line class="node" stroke="black" stroke-width="8" x1="176" y1="276" x2="176" y2="276"/>
    <line class="node" stroke="white" stroke-width="4" x1="176" y1="276" x2="176" y2="276"/>

    <text x="180" y="272" stroke="white" stroke-width="2">Coeus</text>
    <text x="180" y="272">Coeus</text>
  
    <line class="node" stroke="black" stroke-width="8" x1="176" y1="298" x2="176" y2="298"/>
    <line class="node" stroke="white" stroke-width="4" x1="176" y1="298" x2="176" y2="298"/>

    <text x="180" y="294" stroke="white" stroke-width="2">Phoebe</text>
    <text x="180" y="294">Phoebe</text>
  
    <line class="node" stroke="black" stroke-width="8" x1="176" y1="320" x2="176" y2="320"/>
    <line class="node" stroke="white" stroke-width="4" x1="176" y1="320" x2="176" y2="320"/>

    <text x="180" y="316" stroke="white" stroke-width="2">Crius</text>
    <text x="180" y="316">Crius</text>
  
    <line class="node" stroke="black" stroke-width="8" x1="176" y1="342" x2="176" y2="342"/>
    <line class="node" stroke="white" stroke-width="4" x1="176" y1="342" x2="176" y2="342"/>

    <text x="180" y="338" stroke="white" stroke-width="2">Hyperion</text>
    <text x="180" y="338">Hyperion</text>
  
    <line class="node" stroke="black" stroke-width="8" x1="176" y1="364" x2="176" y2="364"/>
    <line class="node" stroke="white" stroke-width="4" x1="176" y1="364" x2="176" y2="364"/>

    <text x="180" y="360" stroke="white" stroke-width="2">Iapetus</text>
    <text x="180" y="360">Iapetus</text>
  
    <line class="node" stroke="black" stroke-width="8" x1="176" y1="386" x2="176" y2="386"/>
    <line class="node" stroke="white" stroke-width="4" x1="176" y1="386" x2="176" y2="386"/>

    <text x="180" y="382" stroke="white" stroke-width="2">Thea</text>
    <text x="180" y="382">Thea</text>
  
    <line class="node" stroke="black" stroke-width="8" x1="176" y1="408" x2="176" y2="408"/>
    <line class="node" stroke="white" stroke-width="4" x1="176" y1="408" x2="176" y2="408"/>

    <text x="180" y="404" stroke="white" stroke-width="2">Themis</text>
    <text x="180" y="404">Themis</text>
  
    <line class="node" stroke="black" stroke-width="8" x1="176" y1="430" x2="176" y2="430"/>
    <line class="node" stroke="white" stroke-width="4" x1="176" y1="430" x2="176" y2="430"/>

    <text x="180" y="426" stroke="white" stroke-width="2">Mnemosyne</text>
    <text x="180" y="426">Mnemosyne</text>
  
    <line class="node" stroke="black" stroke-width="8" x1="302" y1="236" x2="302" y2="236"/>
    <line class="node" stroke="white" stroke-width="4" x1="302" y1="236" x2="302" y2="236"/>

    <text x="306" y="232" stroke="white" stroke-width="2">Doris</text>
    <text x="306" y="232">Doris</text>
  
    <line class="node" stroke="black" stroke-width="8" x1="302" y1="258" x2="302" y2="258"/>
    <line class="node" stroke="white" stroke-width="4" x1="302" y1="258" x2="302" y2="258"/>

    <text x="306" y="254" stroke="white" stroke-width="2">Neures</text>
    <text x="306" y="254">Neures</text>
  
    <line class="node" stroke="black" stroke-width="8" x1="302" y1="280" x2="302" y2="280"/>
    <line class="node" stroke="white" stroke-width="4" x1="302" y1="280" x2="302" y2="280"/>

    <text x="306" y="276" stroke="white" stroke-width="2">Dionne</text>
    <text x="306" y="276">Dionne</text>
  
    <line class="node" stroke="black" stroke-width="8" x1="302" y1="302" x2="302" y2="302"/>
    <line class="node" stroke="white" stroke-width="4" x1="302" y1="302" x2="302" y2="302"/>

    <text x="306" y="298" stroke="white" stroke-width="2">Demeter</text>
    <text x="306" y="298">Demeter</text>
  
    <line class="node" stroke="black" stroke-width="8" x1="302" y1="324" x2="302" y2="324"/>
    <line class="node" stroke="white" stroke-width="4" x1="302" y1="324" x2="302" y2="324"/>

    <text x="306" y="320" stroke="white" stroke-width="2">Hades</text>
    <text x="306" y="320">Hades</text>
  
    <line class="node" stroke="black" stroke-width="8" x1="302" y1="346" x2="302" y2="346"/>
    <line class="node" stroke="white" stroke-width="4" x1="302" y1="346" x2="302" y2="346"/>

    <text x="306" y="342" stroke="white" stroke-width="2">Hera</text>
    <text x="306" y="342">Hera</text>
  
    <line class="node" stroke="black" stroke-width="8" x1="302" y1="368" x2="302" y2="368"/>
    <line class="node" stroke="white" stroke-width="4" x1="302" y1="368" x2="302" y2="368"/>

    <text x="306" y="364" stroke="white" stroke-width="2">Alcmene</text>
    <text x="306" y="364">Alcmene</text>
  
    <line class="node" stroke="black" stroke-width="8" x1="302" y1="390" x2="302" y2="418"/>
    <line class="node" stroke="white" stroke-width="4" x1="302" y1="390" x2="302" y2="418"/>

    <text x="306" y="386" stroke="white" stroke-width="2">Zeus</text>
    <text x="306" y="386">Zeus</text>
  
    <line class="node" stroke="black" stroke-width="8" x1="302" y1="440" x2="302" y2="440"/>
    <line class="node" stroke="white" stroke-width="4" x1="302" y1="440" x2="302" y2="440"/>

    <text x="306" y="436" stroke="white" stroke-width="2">Eris</text>
    <text x="306" y="436">Eris</text>
  
    <line class="node" stroke="black" stroke-width="8" x1="302" y1="462" x2="302" y2="462"/>
    <line class="node" stroke="white" stroke-width="4" x1="302" y1="462" x2="302" y2="462"/>

    <text x="306" y="458" stroke="white" stroke-width="2">Leto</text>
    <text x="306" y="458">Leto</text>
  
    <line class="node" stroke="black" stroke-width="8" x1="302" y1="484" x2="302" y2="484"/>
    <line class="node" stroke="white" stroke-width="4" x1="302" y1="484" x2="302" y2="484"/>

    <text x="306" y="480" stroke="white" stroke-width="2">Amphitrite</text>
    <text x="306" y="480">Amphitrite</text>
  
    <line class="node" stroke="black" stroke-width="8" x1="302" y1="506" x2="302" y2="506"/>
    <line class="node" stroke="white" stroke-width="4" x1="302" y1="506" x2="302" y2="506"/>

    <text x="306" y="502" stroke="white" stroke-width="2">Medusa</text>
    <text x="306" y="502">Medusa</text>
  
    <line class="node" stroke="black" stroke-width="8" x1="302" y1="528" x2="302" y2="536"/>
    <line class="node" stroke="white" stroke-width="4" x1="302" y1="528" x2="302" y2="536"/>

    <text x="306" y="524" stroke="white" stroke-width="2">Poseidon</text>
    <text x="306" y="524">Poseidon</text>
  
    <line class="node" stroke="black" stroke-width="8" x1="302" y1="558" x2="302" y2="558"/>
    <line class="node" stroke="white" stroke-width="4" x1="302" y1="558" x2="302" y2="558"/>

    <text x="306" y="554" stroke="white" stroke-width="2">Hestia</text>
    <text x="306" y="554">Hestia</text>
  
    <line class="node" stroke="black" stroke-width="8" x1="526" y1="348" x2="526" y2="348"/>
    <line class="node" stroke="white" stroke-width="4" x1="526" y1="348" x2="526" y2="348"/>

    <text x="530" y="344" stroke="white" stroke-width="2">Thetis</text>
    <text x="530" y="344">Thetis</text>
  
    <line class="node" stroke="black" stroke-width="8" x1="526" y1="370" x2="526" y2="370"/>
    <line class="node" stroke="white" stroke-width="4" x1="526" y1="370" x2="526" y2="370"/>

    <text x="530" y="366" stroke="white" stroke-width="2">Peleus</text>
    <text x="530" y="366">Peleus</text>
  
    <line class="node" stroke="black" stroke-width="8" x1="526" y1="392" x2="526" y2="392"/>
    <line class="node" stroke="white" stroke-width="4" x1="526" y1="392" x2="526" y2="392"/>

    <text x="530" y="388" stroke="white" stroke-width="2">Anchises</text>
    <text x="530" y="388">Anchises</text>
  
    <line class="node" stroke="black" stroke-width="8" x1="526" y1="414" x2="526" y2="414"/>
    <line class="node" stroke="white" stroke-width="4" x1="526" y1="414" x2="526" y2="414"/>

    <text x="530" y="410" stroke="white" stroke-width="2">Adonis</text>
    <text x="530" y="410">Adonis</text>
  
    <line class="node" stroke="black" stroke-width="8" x1="526" y1="436" x2="526" y2="440"/>
    <line class="node" stroke="white" stroke-width="4" x1="526" y1="436" x2="526" y2="440"/>

    <text x="530" y="432" stroke="white" stroke-width="2">Aphrodite</text>
    <text x="530" y="432">Aphrodite</text>
  
    <line class="node" stroke="black" stroke-width="8" x1="526" y1="462" x2="526" y2="462"/>
    <line class="node" stroke="white" stroke-width="4" x1="526" y1="462" x2="526" y2="462"/>

    <text x="530" y="458" stroke="white" stroke-width="2">Persephone</text>
    <text x="530" y="458">Persephone</text>
  
    <line class="node" stroke="black" stroke-width="8" x1="526" y1="484" x2="526" y2="484"/>
    <line class="node" stroke="white" stroke-width="4" x1="526" y1="484" x2="526" y2="484"/>

    <text x="530" y="480" stroke="white" stroke-width="2">Ares</text>
    <text x="530" y="480">Ares</text>
  
    <line class="node" stroke="black" stroke-width="8" x1="526" y1="506" x2="526" y2="506"/>
    <line class="node" stroke="white" stroke-width="4" x1="526" y1="506" x2="526" y2="506"/>

    <text x="530" y="502" stroke="white" stroke-width="2">Hephaestus</text>
    <text x="530" y="502">Hephaestus</text>
  
    <line class="node" stroke="black" stroke-width="8" x1="526" y1="528" x2="526" y2="528"/>
    <line class="node" stroke="white" stroke-width="4" x1="526" y1="528" x2="526" y2="528"/>

    <text x="530" y="524" stroke="white" stroke-width="2">Hebe</text>
    <text x="530" y="524">Hebe</text>
  
    <line class="node" stroke="black" stroke-width="8" x1="526" y1="550" x2="526" y2="550"/>
    <line class="node" stroke="white" stroke-width="4" x1="526" y1="550" x2="526" y2="550"/>

    <text x="530" y="546" stroke="white" stroke-width="2">Hercules</text>
    <text x="530" y="546">Hercules</text>
  
    <line class="node" stroke="black" stroke-width="8" x1="526" y1="572" x2="526" y2="572"/>
    <line class="node" stroke="white" stroke-width="4" x1="526" y1="572" x2="526" y2="572"/>

    <text x="530" y="568" stroke="white" stroke-width="2">Megara</text>
    <text x="530" y="568">Megara</text>
  
    <line class="node" stroke="black" stroke-width="8" x1="526" y1="594" x2="526" y2="594"/>
    <line class="node" stroke="white" stroke-width="4" x1="526" y1="594" x2="526" y2="594"/>

    <text x="530" y="590" stroke="white" stroke-width="2">Deianira</text>
    <text x="530" y="590">Deianira</text>
  
    <line class="node" stroke="black" stroke-width="8" x1="526" y1="616" x2="526" y2="616"/>
    <line class="node" stroke="white" stroke-width="4" x1="526" y1="616" x2="526" y2="616"/>

    <text x="530" y="612" stroke="white" stroke-width="2">Eileithya</text>
    <text x="530" y="612">Eileithya</text>
  
    <line class="node" stroke="black" stroke-width="8" x1="526" y1="638" x2="526" y2="638"/>
    <line class="node" stroke="white" stroke-width="4" x1="526" y1="638" x2="526" y2="638"/>

    <text x="530" y="634" stroke="white" stroke-width="2">Ate</text>
    <text x="530" y="634">Ate</text>
  
    <line class="node" stroke="black" stroke-width="8" x1="526" y1="660" x2="526" y2="660"/>
    <line class="node" stroke="white" stroke-width="4" x1="526" y1="660" x2="526" y2="660"/>

    <text x="530" y="656" stroke="white" stroke-width="2">Leda</text>
    <text x="530" y="656">Leda</text>
  
    <line class="node" stroke="black" stroke-width="8" x1="526" y1="682" x2="526" y2="682"/>
    <line class="node" stroke="white" stroke-width="4" x1="526" y1="682" x2="526" y2="682"/>

    <text x="530" y="678" stroke="white" stroke-width="2">Athena</text>
    <text x="530" y="678">Athena</text>
  
    <line class="node" stroke="black" stroke-width="8" x1="526" y1="704" x2="526" y2="704"/>
    <line class="node" stroke="white" stroke-width="4" x1="526" y1="704" x2="526" y2="704"/>

    <text x="530" y="700" stroke="white" stroke-width="2">Apollo</text>
    <text x="530" y="700">Apollo</text>
  
    <line class="node" stroke="black" stroke-width="8" x1="526" y1="726" x2="526" y2="726"/>
    <line class="node" stroke="white" stroke-width="4" x1="526" y1="726" x2="526" y2="726"/>

    <text x="530" y="722" stroke="white" stroke-width="2">Artemis</text>
    <text x="530" y="722">Artemis</text>
  
    <line class="node" stroke="black" stroke-width="8" x1="526" y1="748" x2="526" y2="748"/>
    <line class="node" stroke="white" stroke-width="4" x1="526" y1="748" x2="526" y2="748"/>

    <text x="530" y="744" stroke="white" stroke-width="2">Triton</text>
    <text x="530" y="744">Triton</text>
  
    <line class="node" stroke="black" stroke-width="8" x1="526" y1="770" x2="526" y2="770"/>
    <line class="node" stroke="white" stroke-width="4" x1="526" y1="770" x2="526" y2="770"/>

    <text x="530" y="766" stroke="white" stroke-width="2">Pegasus</text>
    <text x="530" y="766">Pegasus</text>
  
    <line class="node" stroke="black" stroke-width="8" x1="526" y1="792" x2="526" y2="792"/>
    <line class="node" stroke="white" stroke-width="4" x1="526" y1="792" x2="526" y2="792"/>

    <text x="530" y="788" stroke="white" stroke-width="2">Orion</text>
    <text x="530" y="788">Orion</text>
  
    <line class="node" stroke="black" stroke-width="8" x1="526" y1="814" x2="526" y2="814"/>
    <line class="node" stroke="white" stroke-width="4" x1="526" y1="814" x2="526" y2="814"/>

    <text x="530" y="810" stroke="white" stroke-width="2">Polyphemus</text>
    <text x="530" y="810">Polyphemus</text>
  
    <line class="node" stroke="black" stroke-width="8" x1="652" y1="572" x2="652" y2="572"/>
    <line class="node" stroke="white" stroke-width="4" x1="652" y1="572" x2="652" y2="572"/>

    <text x="656" y="568" stroke="white" stroke-width="2">Deidamia</text>
    <text x="656" y="568">Deidamia</text>
  
    <line class="node" stroke="black" stroke-width="8" x1="652" y1="594" x2="652" y2="594"/>
    <line class="node" stroke="white" stroke-width="4" x1="652" y1="594" x2="652" y2="594"/>

    <text x="656" y="590" stroke="white" stroke-width="2">Achilles</text>
    <text x="656" y="590">Achilles</text>
  
    <line class="node" stroke="black" stroke-width="8" x1="652" y1="616" x2="652" y2="616"/>
    <line class="node" stroke="white" stroke-width="4" x1="652" y1="616" x2="652" y2="616"/>

    <text x="656" y="612" stroke="white" stroke-width="2">Creusa</text>
    <text x="656" y="612">Creusa</text>
  
    <line class="node" stroke="black" stroke-width="8" x1="652" y1="638" x2="652" y2="642"/>
    <line class="node" stroke="white" stroke-width="4" x1="652" y1="638" x2="652" y2="642"/>

    <text x="656" y="634" stroke="white" stroke-width="2">Aeneas</text>
    <text x="656" y="634">Aeneas</text>
  
    <line class="node" stroke="black" stroke-width="8" x1="652" y1="664" x2="652" y2="664"/>
    <line class="node" stroke="white" stroke-width="4" x1="652" y1="664" x2="652" y2="664"/>

    <text x="656" y="660" stroke="white" stroke-width="2">Lavinia</text>
    <text x="656" y="660">Lavinia</text>
  
    <line class="node" stroke="black" stroke-width="8" x1="652" y1="686" x2="652" y2="686"/>
    <line class="node" stroke="white" stroke-width="4" x1="652" y1="686" x2="652" y2="686"/>

    <text x="656" y="682" stroke="white" stroke-width="2">Eros</text>
    <text x="656" y="682">Eros</text>
  
    <line class="node" stroke="black" stroke-width="8" x1="652" y1="708" x2="652" y2="708"/>
    <line class="node" stroke="white" stroke-width="4" x1="652" y1="708" x2="652" y2="708"/>

    <text x="656" y="704" stroke="white" stroke-width="2">Helen</text>
    <text x="656" y="704">Helen</text>
  
    <line class="node" stroke="black" stroke-width="8" x1="652" y1="730" x2="652" y2="730"/>
    <line class="node" stroke="white" stroke-width="4" x1="652" y1="730" x2="652" y2="730"/>

    <text x="656" y="726" stroke="white" stroke-width="2">Menelaus</text>
    <text x="656" y="726">Menelaus</text>
  
    <line class="node" stroke="black" stroke-width="8" x1="652" y1="752" x2="652" y2="752"/>
    <line class="node" stroke="white" stroke-width="4" x1="652" y1="752" x2="652" y2="752"/>

    <text x="656" y="748" stroke="white" stroke-width="2">Polydueces</text>
    <text x="656" y="748">Polydueces</text>
  
    <line class="node" stroke="black" stroke-width="8" x1="778" y1="668" x2="778" y2="668"/>
    <line class="node" stroke="white" stroke-width="4" x1="778" y1="668" x2="778" y2="668"/>

    <text x="782" y="664" stroke="white" stroke-width="2">Andromache</text>
    <text x="782" y="664">Andromache</text>
  
    <line class="node" stroke="black" stroke-width="8" x1="778" y1="690" x2="778" y2="690"/>
    <line class="node" stroke="white" stroke-width="4" x1="778" y1="690" x2="778" y2="690"/>

    <text x="782" y="686" stroke="white" stroke-width="2">Neoptolemus</text>
    <text x="782" y="686">Neoptolemus</text>
  
    <line class="node" stroke="black" stroke-width="8" x1="778" y1="712" x2="778" y2="712"/>
    <line class="node" stroke="white" stroke-width="4" x1="778" y1="712" x2="778" y2="712"/>

    <text x="782" y="708" stroke="white" stroke-width="2">Aeneas(2)</text>
    <text x="782" y="708">Aeneas(2)</text>
  
    <line class="node" stroke="black" stroke-width="8" x1="778" y1="734" x2="778" y2="734"/>
    <line class="node" stroke="white" stroke-width="4" x1="778" y1="734" x2="778" y2="734"/>

    <text x="782" y="730" stroke="white" stroke-width="2">Pompilius</text>
    <text x="782" y="730">Pompilius</text>
  
    <line class="node" stroke="black" stroke-width="8" x1="778" y1="756" x2="778" y2="756"/>
    <line class="node" stroke="white" stroke-width="4" x1="778" y1="756" x2="778" y2="756"/>

    <text x="782" y="752" stroke="white" stroke-width="2">Iulus</text>
    <text x="782" y="752">Iulus</text>
  
    <line class="node" stroke="black" stroke-width="8" x1="778" y1="778" x2="778" y2="778"/>
    <line class="node" stroke="white" stroke-width="4" x1="778" y1="778" x2="778" y2="778"/>

    <text x="782" y="774" stroke="white" stroke-width="2">Hermione</text>
    <text x="782" y="774">Hermione</text>
  

  </svg>